<svg version="1.1" xmlns="http://www.w3.org/2000/svg" xmlns:xlink="http://www.w3.org/1999/xlink" width="24px" height="24px" viewBox="0,0,256,256"><g fill="#ffffff" fill-rule="nonzero" stroke="none" stroke-width="1" stroke-linecap="butt" stroke-linejoin="miter" stroke-miterlimit="10" stroke-dasharray="" stroke-dashoffset="0" font-family="none" font-weight="none" font-size="none" text-anchor="none" style="mix-blend-mode: normal"><g transform="scale(10.66667,10.66667)"><g id="Layer_2"><g id="close"><g id="close-2"><rect x="-24" y="-24" transform="rotate(180)" width="24" height="24" opacity="0"></rect><path d="M13.41,12l4.3,-4.29c0.39212,-0.39212 0.39212,-1.02788 0,-1.42c-0.39212,-0.39212 -1.02788,-0.39212 -1.42,0l-4.29,4.3l-4.29,-4.3c-0.39212,-0.39212 -1.02788,-0.39212 -1.42,0c-0.39212,0.39212 -0.39212,1.02788 0,1.42l4.3,4.29l-4.3,4.29c-0.18931,0.18777 -0.2958,0.44336 -0.2958,0.71c0,0.26664 0.10649,0.52223 0.2958,0.71c0.18777,0.18931 0.44336,0.2958 0.71,0.2958c0.26664,0 0.52223,-0.10649 0.71,-0.2958l4.29,-4.3l4.29,4.3c0.18777,0.18931 0.44336,0.2958 0.71,0.2958c0.26664,0 0.52223,-0.10649 0.71,-0.2958c0.18931,-0.18777 0.2958,-0.44336 0.2958,-0.71c0,-0.26664 -0.10649,-0.52223 -0.2958,-0.71z"></path></g></g></g></g></g></svg>